<svg width="768" height="381" viewBox="0 0 768 381" fill="none" xmlns="http://www.w3.org/2000/svg">
<path d="M132.588 103.67C120.581 108.77 109.854 116 99.489 123.772C82.8944 136.205 67.7211 150.122 56.0638 167.461C51.4638 174.303 47.7531 181.61 46.5131 189.887C45.5825 196.045 45.7238 201.777 50.7785 206.799C52.5091 208.529 53.7891 210.943 56.0251 212.389C57.5371 213.37 56.6971 214.481 56.3224 215.707C55.2238 219.283 48.1158 221.297 44.5225 220.885C33.8212 219.645 24.4639 215.165 17.2786 207.134C10.7652 199.854 8.42523 190.454 10.3119 181.365C12.3412 171.578 17.3426 162.581 23.6239 154.473C36.5998 137.715 52.8585 124.714 70.5651 113.444C95.0184 97.8862 120.905 85.3903 149.182 78.3796C156.782 76.4943 164.497 75.113 172.394 75.5516C180.975 76.0423 183.25 79.425 180.717 87.6356C176.995 99.7463 171.141 110.94 165.544 122.222C148.769 156.035 131.85 189.782 119.974 225.751C117.48 233.303 115.593 240.998 114.778 248.925C114.585 250.862 114.674 252.761 115.218 254.631C116.354 258.504 119.044 259.99 122.844 258.659C128.982 256.504 133.454 252.05 137.706 247.415C144.504 239.991 149.609 231.458 153.99 222.407C166.539 196.497 177.938 170.069 189.803 143.847C198.773 124.03 207.845 104.265 218.585 85.2996C221.817 79.5796 226.094 76.3783 232.582 75.3063C242.094 73.7316 251.451 73.5116 260.693 76.5849C265.526 78.1983 265.693 78.8303 262.967 82.7423C246.567 106.317 233.642 131.827 221.61 157.791C210.119 182.578 199.962 207.922 192.75 234.338C190.591 242.238 188.678 250.205 188.342 258.454C188.162 262.984 188.265 267.439 190.23 271.608C190.966 273.171 190.941 274.048 189.247 274.902C182.669 278.219 175.87 280.84 168.426 281.163C160.272 281.511 156.342 278.31 154.753 270.292C153.784 265.386 153.965 260.39 153.822 254.465C151.845 257.252 150.385 259.383 148.86 261.474C140.64 272.758 131.244 282.828 119.056 289.942C110.422 294.976 101.156 298.115 91.153 298.992C75.4504 300.36 65.2264 291.272 63.9611 274.618C62.9264 261.113 65.7958 248.151 69.4544 235.266C76.5224 210.31 88.0384 187.213 99.4757 164.103C108.898 145.061 120.22 127.09 130.844 108.706C131.67 107.273 132.406 105.788 133.182 104.329C133.364 104.084 133.738 103.748 133.686 103.632C133.364 103.025 132.976 103.464 132.626 103.658L132.588 103.67Z" fill="#FBF9ED"/>
<path d="M237.208 224.395C242.674 224.667 242.779 224.706 241.06 229.973C238.087 239.153 236.42 248.59 235.024 258.106C234.817 259.461 234.843 260.829 233.072 261.435C225.305 264.109 217.472 265.529 209.317 263.373C205.428 262.353 203.424 259.977 202.74 255.897C200.865 244.781 204.032 234.491 207.935 224.461C223.16 185.367 243.334 148.961 267.788 114.877C269.868 111.972 272.206 110.538 275.425 109.532C286.901 105.981 298.508 103.761 310.592 104.897C312.117 105.04 313.654 105.246 315.141 105.62C320.376 106.95 320.828 107.66 320.026 112.889C317.454 129.84 314.637 146.765 312.776 163.82C312.285 168.404 311.949 173 311.445 177.582C311.238 179.415 311.509 180.358 313.706 180.513C316.072 180.681 319.613 180.319 320.31 182.539C321.06 184.915 318.01 186.903 316.097 188.286C310.953 192.003 309.597 196.87 309.856 202.899C310.178 210.439 309.869 218.018 309.894 225.583C309.908 229.586 310.385 233.562 312.169 237.177C312.944 238.753 312.582 239.462 311.212 240.146C302.488 244.523 293.725 248.835 283.67 249.106C275.58 249.326 272.878 246.743 272.374 238.687C271.793 229.443 272.685 220.265 273.189 211.059C273.253 209.819 273.886 207.883 271.289 208.799C259.476 212.97 248 217.877 237.209 224.383L237.208 224.395ZM284.576 133.842C275.852 146.985 269.209 161.252 262.424 175.426C259.917 180.669 257.668 186.013 254.928 192.133C261.582 190.363 267.321 188.725 273.137 187.33C275.27 186.814 275.877 185.781 276.161 183.702C277.764 171.657 279.741 159.676 281.99 147.734C282.857 143.138 284.665 138.67 284.408 133.881C284.485 133.92 284.562 133.945 284.626 133.985C284.576 133.998 284.524 134.024 284.472 134.036C284.512 133.972 284.536 133.906 284.576 133.842ZM483.906 150.045C473.979 153.35 464.027 156.592 454.813 161.986C455.162 162.245 455.33 162.477 455.485 162.477C458.733 162.322 460.064 163.807 459.478 166.932C457.01 180.126 453.313 193.101 452.215 206.554C452.086 208.141 451.335 209.033 449.889 209.703C442.275 213.177 434.379 214.997 425.991 214.081C420.071 213.435 417.978 210.569 418.961 204.437C421.041 191.449 424.493 178.757 427.814 166.054C429.417 159.948 429.326 159.882 423.574 157.017C418.663 154.564 418.507 153.982 422.813 150.536C425.694 148.212 428.874 146.236 432.002 144.248C433.282 143.434 434.018 142.48 434.431 141.021C437.998 128.201 441.707 115.418 445.197 102.573C446.709 97.0344 448.454 91.3797 445.469 85.7504C444.642 84.2011 445.869 83.9304 446.722 83.6464C455.433 80.7024 464.311 78.793 473.527 80.3664C479.834 81.4384 482.871 85.957 481.139 92.1544C477.546 105.09 473.579 117.924 469.766 130.808C469.623 131.298 469.507 131.789 469.223 132.913C474.729 131.66 479.859 130.162 485.081 129.414C489.307 128.808 490.922 126.702 491.943 122.74C494.49 112.862 497.101 102.934 500.615 93.381C502.749 87.597 505.153 81.8397 507.557 76.1197C508.138 74.7384 509.196 74.2224 510.426 73.8344C518.748 71.2784 527.239 70.4264 535.847 72.0011C540.292 72.8144 541.043 74.3118 539.466 78.5211C528.015 109.002 518.955 140.194 511.706 171.916C510.063 179.081 508.008 186.401 510.426 193.875C510.928 195.438 509.895 195.618 508.926 195.902C501.042 198.265 493.107 200.227 484.758 199.609C478.425 199.13 475.931 196.497 475.607 190.106C475.323 184.619 476.99 179.454 478.231 174.24C479.95 167.022 482.018 159.882 483.853 152.68C484.073 151.826 485.133 150.858 483.918 149.941C484.009 150.136 484.098 150.316 484.202 150.509C484.279 150.445 484.37 150.393 484.447 150.329C484.279 150.238 484.099 150.148 483.931 150.045H483.906Z" fill="#FBF9ED"/>
<path d="M407.122 89.0037C411.104 89.0943 417.592 89.7276 423.821 91.973C430.412 94.349 432.144 97.8356 430.05 104.432C426.961 114.128 420.836 121.461 412.344 126.884C408.493 129.337 407.872 129.117 405.637 125.23C402.677 120.093 395.84 116.801 389.933 117.562C384.376 118.285 379.116 119.821 374.721 123.398C369.358 127.761 369.202 133.209 374.36 137.78C378.896 141.808 384.285 144.558 389.726 147.139C394.741 149.515 399.265 152.587 403.62 155.997C416.441 166.002 418.484 180.294 412.757 194.69C408.364 205.741 400.376 213.783 390.528 220.342C380.912 226.733 370.56 231.47 359.381 233.691C352.866 234.982 345.914 234.891 339.128 234.001C332.861 233.174 327.212 231.367 322.456 226.862C317.7 222.355 315.827 217.295 317.727 210.982C319.988 203.429 323.348 196.445 328.388 190.325C330.121 188.221 331.348 187.265 333.817 190.209C342.437 200.537 361.034 203.378 371.774 196.419C378.34 192.171 378.948 186.362 373.545 180.758C368.376 175.401 361.758 172.211 355.49 168.506C349.313 164.853 343.07 161.315 337.901 156.215C329.552 147.953 328.415 138.349 331.981 127.568C335.549 116.826 343.588 109.984 352.44 104.045C366.734 94.4529 387.258 88.7583 407.122 88.9917V89.0037Z" fill="#FBF9ED"/>
<path d="M767.23 135.249C767.23 135.249 561.644 225.029 458.044 268.085C470.284 259.215 482.729 250.81 493.987 239.655C490.6 239.333 488.416 240.443 486.167 241.115C447.213 252.618 409.01 266.342 370.846 280.182C340.744 291.105 310.552 301.807 280.195 311.993C247.885 322.838 215.47 333.359 182.307 341.339C171.606 343.907 160.854 346.399 149.881 347.639C150.462 347.394 151.03 347.071 151.638 346.915C183.806 338.886 214.566 326.609 245.687 315.479C295.407 297.701 344.932 279.382 394.574 261.371C426.444 249.803 458.38 238.403 490.291 226.926C519.344 216.469 548.437 206.076 577.424 195.438C581.664 193.889 635.454 175.672 635.454 175.672L767.242 135.237L767.23 135.249Z" fill="#F6201B"/>
<path d="M579.506 190.274C579.506 190.274 631.784 176.68 635.429 175.685C635.738 175.608 588.696 190.274 587.634 190.597C579.674 192.997 571.725 195.464 563.764 197.917C492.604 219.813 421.559 242.057 350.592 264.573C289.165 284.056 227.683 303.369 166.165 322.579C143.47 329.667 120.361 335.013 96.3997 335.013C80.2704 335.013 65.8091 331.126 57.4465 315.427C53.8531 304.247 53.2731 292.898 55.4824 281.382C56.2184 285.835 57.0584 290.226 59.0104 294.318C64.8651 306.622 75.5531 311.697 88.2584 313.194C105.666 315.247 122.765 312.394 139.734 308.882C171.374 302.322 202.171 292.562 233.37 284.339C269.662 274.773 305.85 264.806 342.076 255.033C382.762 244.06 423.434 233.06 464.132 222.137C500.009 212.505 579.506 190.274 579.506 190.274Z" fill="#FBF9ED"/>
<path d="M57.459 315.427C65.8203 331.126 80.2829 335.001 96.4122 335.013C120.373 335.013 143.481 329.667 166.177 322.579C227.697 303.382 289.177 284.067 350.605 264.573C421.571 242.07 492.615 219.813 563.776 197.917C571.724 195.464 579.672 192.997 587.647 190.597C588.707 190.274 635.442 175.685 635.442 175.685L578.419 195.45C578.419 195.45 520.339 216.482 491.285 226.94C459.375 238.417 427.451 249.829 395.567 261.385C345.928 279.394 296.401 297.714 246.681 315.491C215.561 326.621 184.801 338.898 152.632 346.929C152.025 347.083 151.456 347.406 150.875 347.651C133.737 350.014 116.548 351.758 99.3589 348.671C82.8803 345.715 68.7416 338.821 60.3537 323.277C59.023 320.798 57.743 318.306 57.4723 315.441L57.459 315.427Z" fill="#FCB406"/>
<path d="M0.799484 201.106C6.61547 226.462 24.9941 236.751 47.9207 241.695C52.638 242.715 52.5874 242.586 50.622 246.95C42.5061 264.973 36.7554 283.667 36.1474 303.55C35.5914 321.727 39.5341 338.602 54.214 351.008C64.722 359.891 77.4406 363.776 90.8673 365.662C115.657 369.147 139.954 365.416 164.122 360.55C197.104 353.914 229.26 344.152 261.248 333.888C305.332 319.739 348.821 303.886 392.648 288.999C403.568 285.282 414.45 281.447 425.372 277.703C426.665 277.263 427.905 276.477 429.766 276.774C425.772 279.937 421.197 281.241 416.97 283.177C387.957 296.501 358.721 309.307 329.009 321.043C281.991 339.608 234.495 356.766 185.33 368.876C163.67 374.208 141.802 378.507 119.495 380.303C100.406 381.838 81.6273 381.192 63.3007 374.867C39.9341 366.798 25.4981 347.214 24.3728 322.527C23.3261 299.302 29.0648 277.613 38.2021 256.569C40.1541 252.075 40.0767 252.115 35.6047 250.501C20.2248 244.962 7.76481 236.145 2.41549 219.851C0.463492 213.913 -0.944529 207.767 0.774134 201.091L0.799484 201.106Z" fill="#037BC9"/>
<path d="M568.597 63.3772C574.62 63.7132 579.506 64.2559 584.081 66.5278C587.144 68.0505 588.526 70.5039 588.656 73.8079C588.824 77.8505 587.557 81.6198 586.394 85.4025C578.408 111.185 569.709 136.76 563.854 163.149C562.692 168.39 561.45 173.658 562.174 179.093C562.329 180.217 561.902 180.733 560.973 181.146C552.753 184.709 544.649 188.737 535.396 188.66C527.782 188.596 525.845 186.285 526.465 178.758C527.396 167.448 530.678 156.642 533.818 145.862C540.216 123.876 547.066 102.018 553.722 80.0958C554.949 76.0425 556.036 71.9359 555.738 67.6639C555.609 65.7145 556.306 64.8372 558.181 64.6292C561.994 64.2025 565.793 63.7132 568.597 63.3772Z" fill="#FBF9ED"/>
<path d="M595.842 86.1118C595.842 80.4185 595.816 75.7198 595.842 71.0199C595.868 66.4892 595.248 62.1132 593.618 57.8132C592.456 54.7532 590.492 52.9466 587.557 51.7452C582.272 49.5759 576.767 49.4986 571.209 49.5759C568.908 49.6026 566.608 49.5759 564.088 48.9946C566.129 48.2852 568.172 47.5746 570.2 46.8386C575.745 44.8639 581.212 42.6693 586.834 40.9519C594.834 38.5119 599.693 33.0506 602.885 25.64C606.078 18.2426 609.4 10.9093 612.669 3.55066C613.148 2.46533 613.638 1.39471 614.272 5.02456e-05C613.897 8.1987 613.392 16.0733 613.225 23.9493C612.953 36.4466 616.985 40.7586 629.497 41.6879C631.525 41.8426 633.593 41.7146 635.674 41.9586C629.548 44.1413 623.268 45.6773 617.245 48.0386C612.074 50.0666 608.494 53.3852 606.142 58.4972C602.614 66.1785 599.836 74.1185 597.198 82.1371C596.862 83.1691 596.501 84.2012 595.854 86.0998L595.842 86.1118Z" fill="#FBF9ED"/>
<path d="M599.007 170.275C602.2 164.995 604.707 160.863 607.202 156.719C607.835 155.661 609.967 154.938 609.967 154.938L739.945 131.751C739.945 131.751 646.711 157.235 598.995 170.275H599.007Z" fill="#F6201B"/>
<path d="M649.606 32.3013C649.606 36.7039 649.528 41.1066 649.619 45.5092C649.812 55.5412 652.087 57.8252 662.168 58.2266C663.448 58.2772 664.728 58.2266 666.602 58.2266C663.358 60.2012 660.152 60.5119 657.179 61.4145C650.846 63.3252 646 66.5145 643.648 73.1252C641.683 78.6371 639.035 83.9052 636.746 89.1465C636.746 84.5638 636.875 79.8505 636.72 75.1519C636.448 67.2119 634.872 65.5852 626.886 65.1199C622.84 64.8879 618.768 65.0812 614.543 64.6812C617.503 63.6746 620.423 62.4866 623.447 61.6986C634.614 58.8066 642.162 52.2479 645.406 40.9653C646.272 37.9573 647.667 35.1039 648.831 32.1853C649.088 32.212 649.347 32.2506 649.606 32.2759V32.3013Z" fill="#FBF9ED"/>
<path d="M583.279 177.866C585.992 170.456 588.798 163.072 591.408 155.622C599.136 133.481 605.522 110.94 611.699 88.3332C612.695 84.6799 614.259 82.3559 618.071 81.7745C619.054 81.6199 620.164 80.7159 620.978 81.4772C621.987 82.4199 621.018 83.6465 620.695 84.6665C617.036 96.1305 613.495 107.647 609.606 119.021C603.002 138.309 594.873 156.965 585.813 175.208C585.309 176.214 584.727 177.169 584.183 178.164L583.304 177.854L583.279 177.866ZM431.64 275.895V276.102L431.381 275.999L431.64 275.895Z" fill="#037BC9"/>
</svg>
