<svg xmlns="http://www.w3.org/2000/svg" width="160" height="160" viewBox="0 0 160 160">
  <defs><linearGradient id="g" x1="0" y1="0" x2="1" y2="1"><stop offset="0" stop-color="#E8321A"/><stop offset="1" stop-color="#7a1a0d"/></linearGradient></defs>
  <rect width="160" height="160" fill="url(#g)"/>
  <g transform="translate(80.0,73.60000000000001) scale(0.62)" fill="#FFFFFF" opacity="0.92">
      <path d="M-60,8 q4,-26 22,-30 l36,-4 q14,-1 24,10 l16,18 l26,4 q10,2 10,12 l0,8 q0,6 -8,6 l-12,0
        a13,13 0 1,0 -26,0 l-48,0 a13,13 0 1,0 -26,0 l-8,0 q-8,0 -8,-8 z"/>
      <circle cx="-47" cy="20" r="9" fill="#0A0A0A"/><circle cx="35" cy="20" r="9" fill="#0A0A0A"/>
      <path d="M-30,-18 l30,-3 q9,0 15,7 l10,12 l-55,0 z" fill="#0A0A0A" opacity="0.5"/>
    </g>
  <text x="80.0" y="138" fill="#FFFFFF" font-family="Bebas Neue,Arial,sans-serif" font-size="26" font-weight="bold" text-anchor="middle" letter-spacing="2">MOOCA</text>
</svg>
